<?xml version="1.0" encoding="UTF-8"?>
<svg version="1.1" xmlns="http://www.w3.org/2000/svg" width="2856" height="1531">
<path d="M0 0 C1.17789848 0.00200912 1.17789848 0.00200912 2.3795929 0.00405884 C4.30173023 0.0075312 6.22386407 0.01285484 8.14599609 0.01855469 C0.32025973 24.34831414 -7.69490218 48.60752603 -15.89716339 72.81283951 C-17.03111879 76.16044214 -18.16329814 79.50864443 -19.29551506 82.85683537 C-27.43520265 106.92656325 -35.60398388 130.98638946 -43.85400391 155.01855469 C-46.93653619 153.54450764 -49.02863782 152.03341791 -51.47900391 149.64355469 C-73.63287506 129.66875283 -103.46856303 117.12249682 -133.51025391 117.76855469 C-173.14084435 120.73158949 -207.411564 140.90928914 -234.85400391 169.01855469 C-234.16177734 169.26387939 -233.46955078 169.5092041 -232.75634766 169.76196289 C-189.05026923 185.34916856 -149.62936735 206.49946345 -115.18603516 237.90527344 C-113.10365654 239.79232005 -110.98897327 241.62913702 -108.85400391 243.45605469 C-101.27872984 250.06720296 -94.29490392 257.30445351 -87.85400391 265.01855469 C-87.4125 265.54094727 -86.97099609 266.06333984 -86.51611328 266.6015625 C-52.97586887 306.40587615 -29.83374509 353.35172646 -20.10400391 404.58105469 C-19.90516602 405.61987793 -19.70632813 406.65870117 -19.50146484 407.72900391 C-16.49679537 424.45053065 -15.46825718 441.17941196 -15.54150391 458.14355469 C-15.54332672 459.03041962 -15.54514954 459.91728455 -15.54702759 460.83102417 C-15.77912436 528.32279884 -40.02491118 594.55088912 -83.85400391 646.01855469 C-84.71828904 647.06720727 -85.58151795 648.11673102 -86.44384766 649.16699219 C-97.93287523 663.02300479 -110.61006263 675.99427396 -124.85400391 687.01855469 C-125.94409618 687.91745011 -127.03114535 688.82004398 -128.11572266 689.72558594 C-194.3367987 744.64329906 -283.0190917 768.60363851 -368.08056641 760.77246094 C-411.11673346 756.27925759 -455.08204554 744.5490856 -492.36572266 722.06542969 C-495.45066417 720.76752651 -496.65954602 721.1470981 -499.85400391 722.01855469 C-502.29586189 723.12074592 -502.29586189 723.12074592 -504.74072266 724.53808594 C-505.67037842 725.05983398 -506.60003418 725.58158203 -507.55786133 726.11914062 C-508.54246338 726.68407227 -509.52706543 727.24900391 -510.54150391 727.83105469 C-511.56155518 728.41274414 -512.58160645 728.99443359 -513.63256836 729.59375 C-546.51735027 748.55813754 -583.44898701 773.50352605 -595.79150391 811.33105469 C-598.85249831 824.32114971 -597.74584681 838.28229877 -591.19384766 849.98339844 C-579.48950834 867.50385708 -558.32166657 874.32798661 -538.63769531 878.48681641 C-515.06193567 883.13504225 -490.75917287 883.32378487 -466.82301342 883.30591083 C-463.22580442 883.30548177 -459.62862651 883.31667783 -456.03143311 883.32637024 C-449.82775645 883.34165517 -443.62410207 883.35019733 -437.42040825 883.3540802 C-428.42317372 883.3598968 -419.42599817 883.37859142 -410.4287901 883.40052074 C-395.78546289 883.43605299 -381.1421323 883.4644442 -366.4987793 883.48681641 C-365.62667409 883.4881514 -364.75456889 883.48948639 -363.85603625 883.49086183 C-356.7824355 883.50163539 -349.70883423 883.51205708 -342.63523293 883.52246189 C-336.44977417 883.53157482 -330.26431565 883.54082776 -324.07885742 883.55029297 C-322.77188093 883.55228908 -322.77188093 883.55228908 -321.43850087 883.55432552 C-306.84000318 883.57686023 -292.24153087 883.60709684 -277.64305931 883.64268541 C-268.68261813 883.66416407 -259.72221639 883.67891814 -250.76175094 883.68452418 C-244.61228636 883.68881539 -238.46285942 883.70016627 -232.31341582 883.71674812 C-228.78399867 883.7260216 -225.25465165 883.73231787 -221.72522163 883.72968483 C-199.72044337 883.72293567 -177.77145658 884.50473214 -155.97900391 887.76855469 C-154.83447754 887.93774414 -153.68995117 888.10693359 -152.51074219 888.28125 C-101.74190815 896.08118275 -42.74918649 912.97740694 -10.72900391 956.58105469 C-0.76122872 970.68280485 7.44516098 988.8803533 7.20849609 1006.39355469 C7.19496094 1007.70453125 7.19496094 1007.70453125 7.18115234 1009.04199219 C7.16955078 1009.69425781 7.15794922 1010.34652344 7.14599609 1011.01855469 C28.41813909 1008.25422917 48.26430383 1000.08801804 61.90771484 982.78417969 C74.2999492 965.90278452 76.59806995 950.2392898 76.53367615 929.9039917 C76.53785278 927.7560143 76.5433321 925.60803911 76.54999596 923.46006799 C76.56442615 917.57780584 76.56021335 911.69568409 76.55282915 905.81341434 C76.54809375 899.46150831 76.56061069 893.10963251 76.57084656 886.75773621 C76.5870404 875.03951794 76.58948131 863.32134836 76.58454157 851.60312127 C76.57997913 840.774148 76.58059012 829.94519131 76.58638191 819.11621857 C76.58713879 817.6619582 76.58789477 816.20769784 76.58864986 814.75343747 C76.58979509 812.56181006 76.59094497 810.37018266 76.5921091 808.17855525 C76.60280994 787.80972846 76.60754372 767.44090718 76.59963894 747.0720787 C76.59934177 746.3047042 76.59904459 745.53732969 76.59873841 744.74670141 C76.59628964 738.51565414 76.59367797 732.28460694 76.59105428 726.05355974 C76.58095478 701.7562206 76.58930329 677.45895059 76.61254883 653.16162109 C76.63864397 625.84176991 76.6514632 598.52196033 76.64436108 571.20209622 C76.64364506 568.28678211 76.64297066 565.371468 76.64232063 562.45615387 C76.64206592 561.37947693 76.64206592 561.37947693 76.64180606 560.28104894 C76.63950682 549.4641929 76.6474622 538.64737561 76.66061211 527.83052826 C76.67554869 515.52230201 76.6759597 503.21418344 76.6585412 490.90595713 C76.65003479 484.62955514 76.64787312 478.35332585 76.66319275 472.07693291 C76.67706023 466.32411351 76.6722498 460.57161444 76.65295351 454.81881347 C76.64919954 452.74487791 76.65209791 450.67091657 76.66256516 448.59700403 C76.76454718 426.83210477 72.89383839 407.34842301 57.4206543 391.09716797 C43.31539491 376.99914823 26.65051558 370.99242077 7.14599609 369.01855469 C7.11712626 365.0394031 7.09924203 361.06027816 7.08349609 357.08105469 C7.07511719 355.94474609 7.06673828 354.8084375 7.05810547 353.63769531 C7.05488281 352.55810547 7.05166016 351.47851562 7.04833984 350.36621094 C7.04310303 349.365979 7.03786621 348.36574707 7.0324707 347.33520508 C7.14599609 345.01855469 7.14599609 345.01855469 8.14599609 344.01855469 C11.11301458 343.47460773 14.07263222 342.9870603 17.05368042 342.53160095 C17.99980229 342.38373864 18.94592417 342.23587633 19.9207164 342.08353335 C23.11614082 341.58519453 26.31245335 341.09279915 29.50878906 340.6003418 C31.78980837 340.24586717 34.0707723 339.89103613 36.35168457 339.53587341 C42.56591993 338.56935593 48.78094808 337.60802709 54.99614477 336.64771342 C61.4867873 335.64408368 67.976763 334.6361597 74.46682739 333.62879944 C85.37000322 331.93697514 96.27371834 330.24865576 107.17773438 328.56225586 C118.40347652 326.82609571 129.62874802 325.08693233 140.85351562 323.34448242 C154.36668962 321.24680396 167.8802069 319.15135605 181.3940773 317.05816841 C186.56080657 316.25787266 191.72740947 315.45676805 196.89391708 314.65504265 C202.97556057 313.71147114 209.05755475 312.77019348 215.13983154 311.83071327 C217.37692422 311.48480338 219.61389691 311.13811642 221.85074234 310.79061127 C224.89495593 310.31781384 227.93958618 309.84779949 230.98434448 309.37852478 C231.87762384 309.23913276 232.7709032 309.09974074 233.69125164 308.95612472 C234.91150797 308.76894641 234.91150797 308.76894641 236.15641594 308.57798672 C236.85949564 308.46916933 237.56257534 308.36035195 238.28696048 308.24823707 C240.14599609 308.01855469 240.14599609 308.01855469 243.14599609 308.01855469 C243.47599609 376.32855469 243.80599609 444.63855469 244.14599609 515.01855469 C250.08599609 501.15855469 250.08599609 501.15855469 256.14599609 487.01855469 C258.4169639 482.06798577 260.68969186 477.155423 263.08349609 472.26855469 C263.36836884 471.68356201 263.65324158 471.09856934 263.94674683 470.49584961 C279.82997203 437.90919229 298.18694739 406.65336966 321.59326172 378.86376953 C323.10605735 377.06601648 324.60328918 375.25620978 326.09912109 373.44433594 C336.63361777 360.79695342 348.10055195 349.08511788 361.14599609 339.01855469 C362.40983709 338.00395047 363.67279352 336.98824383 364.93505859 335.97167969 C395.48851797 311.64875798 434.73554848 294.20843347 474.28271484 293.78027344 C475.03568344 293.77034363 475.78865204 293.76041382 476.56443787 293.75018311 C508.63362398 293.41448159 534.9834336 300.24132536 564.77099609 312.39355469 C565.80264893 312.81008301 566.83430176 313.22661133 567.8972168 313.65576172 C569.30813599 314.2491333 569.30813599 314.2491333 570.74755859 314.85449219 C571.57594238 315.20044434 572.40432617 315.54639648 573.2578125 315.90283203 C575.14599609 317.01855469 575.14599609 317.01855469 576.14599609 320.01855469 C575.67279053 321.96556091 575.67279053 321.96556091 574.81689453 324.21557617 C574.49699554 325.07063751 574.17709656 325.92569885 573.84750366 326.80667114 C573.30689804 328.2089949 573.30689804 328.2089949 572.75537109 329.63964844 C572.38409088 330.62544891 572.01281067 331.61124939 571.63027954 332.62692261 C570.82040558 334.77449219 570.00634399 336.92048604 569.18865967 339.06509399 C567.43161153 343.67424466 565.69478296 348.29092173 563.95724487 352.90745544 C563.04944415 355.31940444 562.14067578 357.73098943 561.23098755 360.14222717 C556.57103577 372.50587283 552.03894023 384.9149707 547.52099609 397.33105469 C545.94378577 401.65951346 544.36544343 405.98755866 542.78662109 410.31542969 C542.40037567 411.37432404 542.01413025 412.43321838 541.61618042 413.52420044 C530.58853801 443.73618638 519.35873511 473.87487089 508.14599609 504.01855469 C507.48599609 504.01855469 506.82599609 504.01855469 506.14599609 504.01855469 C505.93507324 503.30948975 505.72415039 502.6004248 505.50683594 501.86987305 C499.68576769 482.13650905 499.68576769 482.13650905 492.14599609 463.01855469 C491.85789062 462.37805176 491.56978516 461.73754883 491.27294922 461.07763672 C482.58952754 442.05396713 470.746252 425.40960674 452.14599609 415.01855469 C451.36998047 414.55835938 450.59396484 414.09816406 449.79443359 413.62402344 C429.28335399 402.27090078 403.62481106 403.15552858 381.66552734 409.20214844 C359.14515907 415.91506917 339.12869405 428.97933995 322.14599609 445.01855469 C320.87853581 446.08507615 319.60776346 447.1476756 318.33349609 448.20605469 C307.66500663 457.54098296 298.58321503 468.67647493 290.14599609 480.01855469 C289.67339355 480.65067871 289.20079102 481.28280273 288.71386719 481.93408203 C276.99487033 497.73027245 267.2053787 514.60653567 258.33349609 532.14355469 C257.83084229 533.13025146 257.32818848 534.11694824 256.81030273 535.13354492 C255.80463053 537.16179 254.83316477 539.2073234 253.8950386 541.26768112 C252.73111647 543.823244 251.46170821 546.28430223 250.12078476 548.75079727 C241.96112211 564.89519943 243.02526782 582.05084944 243.15883493 599.65437341 C243.18543337 604.33198804 243.165287 609.00945073 243.15130615 613.68708801 C243.13125562 622.82335771 243.15355371 631.95904305 243.19070736 641.09524003 C243.2324729 651.75283037 243.23195659 662.41029815 243.23001704 673.06795493 C243.22801952 692.09148698 243.26452849 711.11474896 243.32275391 730.13818359 C243.37912536 748.56564247 243.40743518 766.99286387 243.40478516 785.42041016 C243.40454542 787.12394872 243.40454542 787.12394872 243.40430084 788.86190221 C243.40405871 790.56260166 243.40405871 790.56260166 243.40381169 792.29765868 C243.40104734 813.32825384 243.42463676 834.35874886 243.46042456 855.38931148 C243.47245145 862.80546051 243.47673817 870.22159102 243.47855377 877.63774872 C243.48129175 886.68130142 243.49928159 895.72468514 243.53588501 904.76816621 C243.55425947 909.37580228 243.56657536 913.98322338 243.56150818 918.59089851 C243.55708437 922.81872786 243.57146231 927.0460841 243.60010228 931.27381495 C243.60727402 932.79299033 243.60795777 934.31221525 243.60103312 935.83139178 C243.5162193 956.77720248 249.38384556 975.64538799 264.14599609 991.01855469 C278.3261265 1004.82682853 296.11732364 1009.32972054 315.14599609 1012.01855469 C315.14599609 1020.26855469 315.14599609 1028.51855469 315.14599609 1037.01855469 C162.19099609 1037.51355469 162.19099609 1037.51355469 6.14599609 1038.01855469 C4.49599609 1043.62855469 2.84599609 1049.23855469 1.14599609 1055.01855469 C-5.51437819 1071.31751941 -15.7142316 1084.46726468 -27.85400391 1097.01855469 C-28.45728516 1097.67339844 -29.06056641 1098.32824219 -29.68212891 1099.00292969 C-77.51566602 1149.73546906 -168.86980099 1176.93874697 -236.85400391 1182.01855469 C-236.57685547 1183.03175781 -236.29970703 1184.04496094 -236.01416016 1185.08886719 C-235.6481231 1186.44038863 -235.28224619 1187.79195345 -234.91650391 1189.14355469 C-234.73410156 1189.80871094 -234.55169922 1190.47386719 -234.36376953 1191.15917969 C-227.47594324 1216.70675356 -232.12210711 1243.95112921 -244.19775391 1267.14746094 C-257.70619198 1290.5642109 -279.9109326 1309.1591335 -306.19384766 1316.23730469 C-334.20714224 1323.30793857 -362.77331636 1320.41065472 -388.03759766 1306.10546875 C-392.97478182 1303.15112145 -397.43929115 1299.69337145 -401.85400391 1296.01855469 C-402.77697266 1295.27089844 -403.69994141 1294.52324219 -404.65087891 1293.75292969 C-423.62411522 1277.56672244 -435.66435592 1253.36369435 -438.57275391 1228.69824219 C-440.66039408 1201.38494995 -434.9159385 1174.18228497 -417.60400391 1152.33105469 C-416.0454114 1150.53840733 -414.46077478 1148.76814964 -412.85400391 1147.01855469 C-412.41604492 1146.53290039 -411.97808594 1146.04724609 -411.52685547 1145.546875 C-394.83638869 1127.20738539 -370.96813245 1114.48012597 -345.93579102 1112.82568359 C-317.04237217 1112.063568 -291.37823909 1116.79134523 -268.85400391 1136.01855469 C-267.45794922 1137.17291016 -267.45794922 1137.17291016 -266.03369141 1138.35058594 C-253.61916737 1149.05335806 -243.08337159 1163.33045162 -237.85400391 1179.01855469 C-227.85658929 1177.03043246 -218.99102723 1173.40028256 -209.85400391 1169.01855469 C-208.87995605 1168.5520752 -208.87995605 1168.5520752 -207.88623047 1168.07617188 C-198.33043989 1163.42153033 -189.98004575 1157.86213462 -181.85400391 1151.01855469 C-181.17853516 1150.4578125 -180.50306641 1149.89707031 -179.80712891 1149.31933594 C-168.93777201 1139.42223803 -161.53858399 1124.30096102 -160.65087891 1109.67089844 C-160.45884563 1094.45226095 -163.70229707 1082.15521819 -174.11181641 1070.66699219 C-205.47087957 1040.99541224 -260.28313928 1042.8796762 -300.47363281 1042.86083984 C-302.75801691 1042.85615644 -305.04240011 1042.85101045 -307.32678223 1042.84544373 C-312.20295751 1042.83426975 -317.07912706 1042.82578494 -321.95531082 1042.81932449 C-329.69356724 1042.80851862 -337.43178187 1042.78824303 -345.17001343 1042.76620483 C-347.83442872 1042.75875221 -350.49884406 1042.75131509 -353.16325951 1042.74391747 C-353.82873218 1042.7420669 -354.49420486 1042.74021633 -355.17984337 1042.73830969 C-362.71494373 1042.71748243 -370.2500485 1042.69860671 -377.78515625 1042.68066406 C-378.47198342 1042.67902588 -379.15881059 1042.6773877 -379.86645071 1042.67569987 C-390.98222691 1042.64944578 -402.09800634 1042.63077576 -413.21380039 1042.61407216 C-424.70121189 1042.59653506 -436.18855211 1042.56739007 -447.67591417 1042.52918279 C-454.09560244 1042.50829322 -460.51520106 1042.49268135 -466.93492508 1042.49037552 C-532.14725592 1042.46005209 -599.35673248 1036.392025 -648.43994141 988.49511719 C-652.90892889 983.77523918 -656.6513218 978.63626976 -660.29150391 973.26855469 C-660.71729736 972.64223145 -661.14309082 972.0159082 -661.58178711 971.37060547 C-663.99235004 967.69936547 -665.65513677 964.28992832 -666.85400391 960.01855469 C-667.51400391 960.01855469 -668.17400391 960.01855469 -668.85400391 960.01855469 C-669.19238281 961.23671875 -669.19238281 961.23671875 -669.53759766 962.47949219 C-671.17862205 966.89126697 -673.43879652 970.65609985 -675.91650391 974.64355469 C-676.40892578 975.43971191 -676.90134766 976.23586914 -677.40869141 977.05615234 C-684.09855901 987.74567917 -691.69725743 997.39665443 -700.41259766 1006.50976562 C-701.37620782 1007.5184226 -702.3345377 1008.53214973 -703.28759766 1009.55078125 C-726.29141017 1034.09753241 -759.98995566 1050.81170483 -793.84130859 1052.1796875 C-795.23609926 1052.19918954 -796.63097912 1052.21296686 -798.02587891 1052.22167969 C-799.15990898 1052.23226913 -799.15990898 1052.23226913 -800.31684875 1052.24307251 C-832.58052496 1052.47587396 -832.58052496 1052.47587396 -846.85400391 1049.01855469 C-847.67562012 1048.81987793 -848.49723633 1048.62120117 -849.34375 1048.41650391 C-875.15061106 1041.90749965 -898.76586464 1028.40423553 -912.85400391 1005.01855469 C-930.06647991 975.9985244 -933.61257621 944.14507273 -934.85400391 911.01855469 C-936.08927827 912.35515173 -937.3244734 913.69182205 -938.55932617 915.02880859 C-939.64920655 916.20858797 -940.73955376 917.38793623 -941.83032227 918.56689453 C-944.38047775 921.32598284 -946.91995558 924.09190094 -949.43212891 926.88574219 C-955.28840659 933.38657874 -961.36490934 939.63483301 -967.54150391 945.83105469 C-968.33758057 946.63172363 -969.13365723 947.43239258 -969.95385742 948.25732422 C-974.21378494 952.50618469 -978.55276267 956.59549032 -983.11401367 960.51928711 C-985.28153625 962.38693916 -987.37732887 964.3273712 -989.47900391 966.26855469 C-995.67960684 971.85476862 -1002.23229934 976.94661076 -1008.85400391 982.01855469 C-1009.81814209 982.76008789 -1009.81814209 982.76008789 -1010.80175781 983.51660156 C-1020.2304435 990.75045867 -1029.82913708 997.63323791 -1039.85400391 1004.01855469 C-1040.42876465 1004.38513184 -1041.00352539 1004.75170898 -1041.59570312 1005.12939453 C-1078.73255604 1028.58591058 -1120.13348001 1044.83061324 -1163.85400391 1050.01855469 C-1165.06032471 1050.16212402 -1165.06032471 1050.16212402 -1166.29101562 1050.30859375 C-1174.75526012 1051.19755449 -1183.22749698 1051.26186193 -1191.72900391 1051.26855469 C-1192.89002121 1051.2695668 -1192.89002121 1051.2695668 -1194.07449341 1051.27059937 C-1206.55051002 1051.25337864 -1218.61417466 1050.61818688 -1230.85400391 1048.01855469 C-1231.67288086 1047.84694824 -1232.49175781 1047.6753418 -1233.33544922 1047.49853516 C-1252.12107886 1043.43569798 -1269.97104353 1037.20969865 -1286.85400391 1028.01855469 C-1287.46469727 1027.69242188 -1288.07539062 1027.36628906 -1288.70458984 1027.03027344 C-1326.83036394 1006.59339293 -1356.15674895 971.65986453 -1368.83813477 930.24609375 C-1384.23845786 877.53967732 -1379.07648464 817.45273225 -1352.85400391 769.01855469 C-1352.33217529 768.02927979 -1352.33217529 768.02927979 -1351.79980469 767.02001953 C-1343.64888202 751.57989646 -1333.35923117 738.09915174 -1321.85400391 725.01855469 C-1320.98517578 724.02597656 -1320.11634766 723.03339844 -1319.22119141 722.01074219 C-1315.00430205 717.27802539 -1310.74182395 712.8172608 -1305.88525391 708.74121094 C-1303.64097678 706.8378913 -1301.50699294 704.8369228 -1299.35400391 702.83105469 C-1283.8423853 688.86347163 -1265.9190106 677.38479887 -1247.85400391 667.01855469 C-1247.07766602 666.57286133 -1246.30132813 666.12716797 -1245.50146484 665.66796875 C-1208.61944356 644.66870927 -1169.19354514 629.82120755 -1128.85400391 617.01855469 C-1127.88808319 616.71108307 -1127.88808319 616.71108307 -1126.90264893 616.3973999 C-1074.37912195 599.70967706 -1020.26981971 588.19194517 -966.60253906 575.88793945 C-964.55743593 575.41853763 -962.51235059 574.94905827 -960.46728516 574.47949219 C-959.51088135 574.2602861 -958.55447754 574.04108002 -957.5690918 573.81523132 C-951.70307663 572.46456064 -945.86437797 571.04587513 -940.05004883 569.48583984 C-937.85400391 569.01855469 -937.85400391 569.01855469 -933.85400391 569.01855469 C-934.9944733 464.53379426 -934.9944733 464.53379426 -985.92993164 376.47119141 C-1005.92656837 357.60083278 -1031.84775487 348.56921604 -1059.04150391 348.70605469 C-1060.81642212 348.71451416 -1060.81642212 348.71451416 -1062.62719727 348.72314453 C-1093.63527826 349.15049203 -1121.29424049 361.08841795 -1143.66650391 382.45605469 C-1173.5007666 413.66643651 -1183.32639206 456.98241872 -1183.16650391 498.95605469 C-1183.16534576 499.89954773 -1183.16418762 500.84304077 -1183.16299438 501.81512451 C-1183.12681771 516.74740229 -1182.37542853 531.27357936 -1179.85400391 546.01855469 C-1179.70995117 546.88158203 -1179.56589844 547.74460937 -1179.41748047 548.63378906 C-1178.78434585 552.39239778 -1178.12272691 556.14242953 -1177.40478516 559.88574219 C-1176.85400391 563.01855469 -1176.85400391 563.01855469 -1176.85400391 566.01855469 C-1182.12270701 564.44810685 -1186.83469407 562.15689288 -1191.71972656 559.68334961 C-1193.02882996 559.02660751 -1193.02882996 559.02660751 -1194.36437988 558.3565979 C-1196.25747078 557.40625352 -1198.14963535 556.45406213 -1200.04097366 555.5002346 C-1203.06326844 553.97623013 -1206.08809811 552.45736643 -1209.11361694 550.93977356 C-1216.647383 547.15956679 -1224.17690441 543.37093598 -1231.70629883 539.58203125 C-1266.69741327 521.94317895 -1266.69741327 521.94317895 -1302.1461792 505.25283813 C-1306.16987716 503.41875198 -1310.16911417 501.53412996 -1314.16650391 499.64355469 C-1315.47896259 499.02497744 -1316.7914609 498.40648424 -1318.10400391 497.78808594 C-1320.0082194 496.89003014 -1321.91200661 495.99109873 -1323.81494141 495.09033203 C-1325.76432286 494.16813206 -1327.71503878 493.24883645 -1329.66650391 492.33105469 C-1330.2761499 492.04343262 -1330.8857959 491.75581055 -1331.51391602 491.45947266 C-1336.47956552 489.13952766 -1341.5342342 487.09964082 -1346.65869141 485.15917969 C-1348.85400391 484.01855469 -1348.85400391 484.01855469 -1349.85400391 481.01855469 C-1349.17651367 479.21606445 -1349.17651367 479.21606445 -1348.04541016 477.20996094 C-1347.63218506 476.46891113 -1347.21895996 475.72786133 -1346.79321289 474.96435547 C-1346.11174194 473.78462158 -1346.11174194 473.78462158 -1345.41650391 472.58105469 C-1344.72633179 471.36651611 -1344.72633179 471.36651611 -1344.0222168 470.12744141 C-1327.6880759 441.67770526 -1305.20354188 414.53072987 -1278.51220703 395.22802734 C-1276.77509982 393.96100303 -1275.07186443 392.65620932 -1273.36962891 391.34277344 C-1228.52729843 357.08517734 -1172.43628422 337.96710366 -1117.29150391 328.70605469 C-1116.19157608 328.52071671 -1116.19157608 328.52071671 -1115.06942749 328.33163452 C-1110.00723214 327.48899142 -1104.9375875 326.72063619 -1099.85400391 326.01855469 C-1099.12960114 325.91823944 -1098.40519836 325.81792419 -1097.65884399 325.71456909 C-1083.51107569 323.8270708 -1069.42287889 323.65978298 -1055.16650391 323.70605469 C-1054.00069794 323.7078775 -1052.83489197 323.70970032 -1051.63375854 323.71157837 C-1032.86840908 323.76086496 -1014.45598501 324.40801608 -995.85400391 327.01855469 C-994.59201172 327.19547852 -993.33001953 327.37240234 -992.02978516 327.5546875 C-924.54216843 337.3529147 -856.03252925 363.12452639 -813.8425293 419.53491211 C-807.43155071 428.31790608 -801.8879546 437.38948468 -796.85400391 447.01855469 C-796.24041016 448.16582031 -795.62681641 449.31308594 -794.99462891 450.49511719 C-784.18807306 471.29534635 -777.66210479 493.7400193 -773.54150391 516.76855469 C-773.39430908 517.58026123 -773.24711426 518.39196777 -773.09545898 519.22827148 C-769.57921978 540.50470778 -769.55836868 561.88400711 -769.58130682 583.37597859 C-769.58381592 587.83344106 -769.57467332 592.29088246 -769.56692505 596.74833679 C-769.5549583 604.45051011 -769.54977628 612.15266286 -769.54904366 619.85484505 C-769.54770901 631.01336286 -769.53251958 642.17183135 -769.51354849 653.33033162 C-769.48280153 671.47062186 -769.45859201 689.61091335 -769.44067383 707.7512207 C-769.43960115 708.83381739 -769.43852847 709.91641407 -769.43742328 711.03181671 C-769.42560231 723.11058584 -769.4153943 735.18935547 -769.40698242 747.26812744 C-769.40390809 751.65083823 -769.40081935 756.03354901 -769.39770508 760.41625977 C-769.39693974 761.49782075 -769.3961744 762.57938174 -769.39538587 763.69371731 C-769.38227235 781.77360449 -769.35759349 799.85345568 -769.32396168 817.93331617 C-769.30376446 829.05463299 -769.29336939 840.17587265 -769.29595088 851.29720794 C-769.29699154 858.92309908 -769.28726007 866.54892939 -769.26931185 874.17479927 C-769.25934144 878.56229861 -769.2540576 882.94966322 -769.26207924 887.33716965 C-770.22085869 931.19625496 -770.22085869 931.19625496 -750.94775391 969.03027344 C-742.88530249 976.66080782 -735.47215149 978.61493945 -724.59106445 978.49145508 C-712.99563651 978.04700583 -703.77272919 973.37359185 -695.22900391 965.64355469 C-694.44525391 964.77730469 -693.66150391 963.91105469 -692.85400391 963.01855469 C-692.34611328 962.52613281 -691.83822266 962.03371094 -691.31494141 961.52636719 C-687.04962236 957.14419009 -683.88603087 952.16942361 -680.85400391 946.89355469 C-680.44375977 946.23194336 -680.03351562 945.57033203 -679.61083984 944.88867188 C-676.40723019 939.04256798 -676.78110628 934.21564386 -677.46875 927.69482422 C-682.13100013 883.20549442 -667.58917046 843.74517881 -640.20776367 809.21142578 C-626.88626699 792.87423131 -611.64805873 778.69830057 -594.85400391 766.01855469 C-594.20254395 765.52129883 -593.55108398 765.02404297 -592.87988281 764.51171875 C-566.94670385 744.81170022 -537.75403053 728.8186767 -507.85400391 716.01855469 C-507.85400391 715.35855469 -507.85400391 714.69855469 -507.85400391 714.01855469 C-510.24270735 712.41497078 -512.63305904 710.9230566 -515.10400391 709.45605469 C-522.3738781 705.02846472 -529.15512123 700.28196251 -535.85400391 695.01855469 C-537.14564453 694.01695312 -537.14564453 694.01695312 -538.46337891 692.99511719 C-543.66193011 688.91054124 -548.61713159 684.61286522 -553.49853516 680.15527344 C-555.52394362 678.31796261 -557.58231646 676.5381478 -559.66650391 674.76855469 C-568.40387039 667.12778076 -576.51489429 658.82551308 -583.70556641 649.71386719 C-585.11590935 647.94452785 -586.56861642 646.20798714 -588.06494141 644.51074219 C-601.05575468 629.7072573 -611.75657841 612.45719652 -620.85400391 595.01855469 C-621.18803223 594.3861084 -621.52206055 593.75366211 -621.86621094 593.10205078 C-657.65777514 524.98703099 -664.29691657 445.11521231 -642.04150391 371.58105469 C-630.16270796 333.9322724 -611.33456751 299.17751685 -585.85400391 269.01855469 C-584.97594931 267.95382182 -584.09836568 266.88870042 -583.22119141 265.82324219 C-572.75655408 253.23408192 -561.34851707 241.14741281 -548.43603516 231.04199219 C-545.62795918 228.84141222 -542.93658055 226.52892829 -540.22900391 224.20605469 C-483.83581593 177.3083778 -409.5857986 153.81657161 -336.85400391 153.76855469 C-335.46822144 153.76754257 -335.46822144 153.76754257 -334.05444336 153.76651001 C-306.81230646 153.79792879 -279.04282906 156.01436446 -252.85400391 164.01855469 C-252.48082031 162.99181641 -252.48082031 162.99181641 -252.10009766 161.94433594 C-250.64209174 158.52099289 -248.83875815 155.38193483 -246.91650391 152.20605469 C-246.52100342 151.5522583 -246.12550293 150.89846191 -245.71801758 150.22485352 C-235.35828326 133.29730164 -223.56573937 116.8800042 -210.01416016 102.35449219 C-208.18866875 100.38045265 -206.43179951 98.37219719 -204.67822266 96.33496094 C-194.43634644 84.59876701 -183.1887617 73.53291924 -170.85400391 64.01855469 C-169.75329418 63.10947883 -168.65585369 62.19643564 -167.56103516 61.28027344 C-152.29815776 48.59838801 -135.44515286 38.1553541 -117.85400391 29.01855469 C-117.18401367 28.66986328 -116.51402344 28.32117188 -115.82373047 27.96191406 C-85.98887794 12.67173486 -52.74751373 3.97331939 -19.47900391 0.76855469 C-18.25213867 0.64818848 -18.25213867 0.64818848 -17.00048828 0.52539062 C-11.32736979 0.04556353 -5.68874115 -0.01853731 0 0 Z M-401.85400391 207.01855469 C-402.38735352 207.50807617 -402.92070313 207.99759766 -403.47021484 208.50195312 C-463.26000912 263.98257304 -482.92177988 359.0248646 -485.85400391 437.01855469 C-486.0346573 443.93433925 -486.04979756 450.85079881 -486.04150391 457.76855469 C-486.04089966 458.70742523 -486.04029541 459.64629578 -486.03967285 460.61361694 C-485.93113587 523.11834643 -475.75771649 588.52867186 -447.85400391 645.01855469 C-447.17748779 646.39817383 -447.17748779 646.39817383 -446.48730469 647.80566406 C-437.74271836 665.49027956 -427.87853816 682.13337269 -414.85400391 697.01855469 C-414.15017578 697.84355469 -413.44634766 698.66855469 -412.72119141 699.51855469 C-394.5262263 720.38733187 -370.74319145 737.18548729 -342.46313477 739.74536133 C-317.93911682 741.41889465 -293.99454614 732.38672634 -275.50244141 716.39355469 C-274.62845703 715.60980469 -273.75447266 714.82605469 -272.85400391 714.01855469 C-271.84657837 713.14310919 -270.83875173 712.26812509 -269.83056641 711.39355469 C-263.10877514 705.483799 -257.2717594 699.15549503 -251.85400391 692.01855469 C-251.4223291 691.45652344 -250.9906543 690.89449219 -250.54589844 690.31542969 C-243.61683969 681.26362415 -237.47827448 671.92924532 -231.85400391 662.01855469 C-231.21076172 660.90867187 -230.56751953 659.79878906 -229.90478516 658.65527344 C-204.81099023 613.71040341 -193.14329163 560.81078129 -187.85400391 510.01855469 C-187.74958984 509.07544434 -187.64517578 508.13233398 -187.53759766 507.16064453 C-177.93994466 417.57748786 -191.33692165 311.29186595 -250.7800293 226.88037109 C-272.04452913 200.99016455 -296.78618552 181.72614067 -330.85400391 178.01855469 C-357.72129182 175.71690894 -382.78771851 189.3550616 -401.85400391 207.01855469 Z M-941.08447266 594.18652344 C-942.18090088 594.66057617 -943.2773291 595.13462891 -944.40698242 595.62304688 C-945.60637451 596.14543945 -946.8057666 596.66783203 -948.04150391 597.20605469 C-950.6160416 598.32161656 -953.19185791 599.43420108 -955.76806641 600.54589844 C-956.43526199 600.83405426 -957.10245758 601.12221008 -957.78987122 601.4190979 C-962.3045769 603.36431211 -966.8341858 605.26997483 -971.37744141 607.14746094 C-1008.91866836 622.66914078 -1046.51508258 639.1366165 -1080.85400391 661.01855469 C-1081.50643066 661.43234375 -1082.15885742 661.84613281 -1082.83105469 662.27246094 C-1099.05499416 672.63578864 -1114.52925072 684.15694143 -1128.85400391 697.01855469 C-1129.38606445 697.49421875 -1129.918125 697.96988281 -1130.46630859 698.45996094 C-1140.75664439 707.68794686 -1150.25079699 717.17596278 -1158.85400391 728.01855469 C-1159.71604516 729.06775181 -1160.57936555 730.11589904 -1161.44384766 731.16308594 C-1172.91558097 745.20531805 -1182.26030731 760.57036811 -1189.85400391 777.01855469 C-1190.1564502 777.66356934 -1190.45889648 778.30858398 -1190.77050781 778.97314453 C-1211.52614731 823.48430529 -1221.71312402 881.71171636 -1204.60400391 928.83105469 C-1199.1027416 943.24270831 -1191.87312575 955.30179041 -1181.85400391 967.01855469 C-1181.25974609 967.7159375 -1180.66548828 968.41332031 -1180.05322266 969.13183594 C-1166.50747686 983.75317445 -1145.32345926 993.03000565 -1125.61914062 994.14501953 C-1074.11825703 995.78344683 -1030.3134963 968.6458279 -993.61181641 934.55761719 C-991.45695793 932.57368233 -989.27857289 930.65698954 -987.04150391 928.76855469 C-978.31596454 921.19786612 -969.96692206 912.78509843 -962.51416016 903.95996094 C-960.39697929 901.48410472 -958.18618561 899.10194201 -955.97900391 896.70605469 C-951.05753485 891.30735227 -946.41830094 885.72020913 -941.85400391 880.01855469 C-940.8885555 878.99550214 -940.8885555 878.99550214 -939.90360308 877.95178187 C-934.05620628 871.43111589 -932.7007085 866.90099633 -932.89196777 858.26205444 C-932.88171468 856.54639674 -932.88171468 856.54639674 -932.87125444 854.79607928 C-932.8581337 850.9842716 -932.90197913 847.1753152 -932.94580078 843.36376953 C-932.95252164 840.62339511 -932.94714016 837.88307527 -932.94226074 835.1427002 C-932.93807796 829.25376548 -932.96304922 823.36554311 -933.00816345 817.47678757 C-933.07334636 808.9629006 -933.09403179 800.44935598 -933.10406739 791.93524654 C-933.12155057 778.11988476 -933.17471923 764.30490215 -933.25048828 750.48974609 C-933.32398779 737.07440073 -933.38058202 723.65915857 -933.41455078 710.24365234 C-933.41665257 709.41589481 -933.41875436 708.58813727 -933.42091984 707.73529617 C-933.43136059 703.58243136 -933.44147014 699.42956581 -933.45141506 695.27669978 C-933.53426827 660.85704528 -933.67510239 626.43784097 -933.85400391 592.01855469 C-936.6324819 592.01855469 -938.53363709 593.07664064 -941.08447266 594.18652344 Z " fill="#929381" transform="translate(1483.85400390625,102.9814453125)"/>
<path d="M0 0 C45.2370869 41.79129317 66.98994381 97.65464122 70.75 158.61669922 C70.88738237 163.70754359 70.89225683 168.79683089 70.88803101 173.8891449 C70.89045437 175.40246229 70.89331827 176.91577903 70.89658034 178.42909485 C70.90427363 182.55722234 70.90594952 186.68533314 70.90663147 190.81346691 C70.90848209 195.27791712 70.91609518 199.74235781 70.92311096 204.20680237 C70.93460523 211.93643002 70.94286607 219.66605553 70.94923019 227.39568901 C70.95959372 239.63043005 70.98016743 251.86514428 71.00234985 264.09986877 C71.00982861 268.29324618 71.01724251 272.4866237 71.02463722 276.68000126 C71.02648779 277.72785701 71.02833835 278.77571276 71.030245 279.85532172 C71.05114865 291.76853544 71.06998733 303.68175212 71.08789062 315.5949707 C71.0903479 317.22734825 71.0903479 317.22734825 71.09285481 318.89270312 C71.11911711 336.51196655 71.13777536 354.13123206 71.15448253 371.75050675 C71.17194543 389.87528139 71.20083453 408.00001529 71.2393719 426.12475735 C71.26267794 437.28379139 71.27675797 448.44275899 71.27869953 459.60181756 C71.28082015 467.26051417 71.29384256 474.91914487 71.31517886 482.57781183 C71.32712163 486.98549028 71.33441748 491.39303798 71.32846642 495.80073166 C70.53913297 540.81581787 70.53913297 540.81581787 90.53125 579.67138672 C99.16801798 587.24376428 108.69858974 588.29408418 119.75 587.61669922 C133.8453258 585.38415097 144.61926452 577.85060297 153.02734375 566.55810547 C159.26681358 557.53800234 163.53575179 547.6985519 167.75 537.61669922 C168.74599154 535.28162815 169.74813617 532.94925948 170.75 530.61669922 C174.04680965 531.27454885 176.59117922 532.51090495 179.5 534.17919922 C180.29921875 534.63423828 181.0984375 535.08927734 181.921875 535.55810547 C182.52515625 535.90744141 183.1284375 536.25677734 183.75 536.61669922 C183.22296766 542.86274468 181.75138397 548.02033406 179.375 553.80419922 C179.0241333 554.6649707 178.6732666 555.52574219 178.31176758 556.41259766 C160.86651613 598.16643471 131.35243 633.7360826 89.06835938 651.68945312 C51.78679642 666.60050789 6.53961254 666.03752076 -30.4362793 650.34008789 C-55.27258143 639.27305776 -72.80695735 618.68680901 -82.48876953 593.66113281 C-91.23494081 570.17157595 -92.99410006 545.428381 -94.25 520.61669922 C-95.89221973 522.36023423 -97.53425483 524.10394239 -99.17602539 525.84790039 C-100.61863848 527.37986285 -102.06184992 528.91126205 -103.50561523 530.44213867 C-107.06325659 534.21727099 -110.6115039 537.99962834 -114.125 541.81591797 C-121.93907607 550.28331047 -130.0205212 558.31622868 -138.546875 566.06640625 C-140.12251206 567.50065157 -141.68804505 568.94493086 -143.25 570.39404297 C-149.38956991 576.05395898 -155.7152915 581.42053969 -162.25 586.61669922 C-162.89324219 587.13248535 -163.53648437 587.64827148 -164.19921875 588.1796875 C-211.54915938 626.06620423 -266.48182442 653.05776047 -327.25 659.61669922 C-328.38824219 659.74818359 -329.52648438 659.87966797 -330.69921875 660.01513672 C-347.78992305 661.66835517 -365.27968615 661.14601444 -382.25 658.61669922 C-383.01779785 658.50374512 -383.7855957 658.39079102 -384.57666016 658.27441406 C-430.48158476 651.1467943 -475.36009514 626.88749503 -503.1875 589.11669922 C-504.93368781 586.65298933 -506.60787232 584.15078323 -508.25 581.61669922 C-508.67861328 580.95734375 -509.10722656 580.29798828 -509.54882812 579.61865234 C-537.01194567 536.68450881 -542.29686231 482.12625953 -531.890625 432.89013672 C-524.93099221 402.04048981 -512.84976136 373.56856113 -493.25 348.61669922 C-492.48816406 347.64216797 -491.72632812 346.66763672 -490.94140625 345.66357422 C-485.35579256 338.69400277 -479.37246875 332.11326814 -473.25 325.61669922 C-472.56035156 324.88451172 -471.87070313 324.15232422 -471.16015625 323.39794922 C-466.7543968 318.85704377 -462.01655164 314.84585347 -457.08203125 310.89013672 C-455.27124657 309.43651371 -453.47524711 307.96415084 -451.69921875 306.46826172 C-378.7524179 245.144244 -277.27824114 219.99741573 -159.43572998 192.86281013 C-144.83717619 189.53497101 -130.26002845 186.11930249 -115.6875 182.67919922 C-113.48478254 182.15966528 -111.28206446 181.64013394 -109.0793457 181.12060547 C-104.1358703 179.95415667 -99.19279446 178.78602997 -94.25 177.61669922 C-93.68765109 110.95239915 -95.16672766 36.98681341 -144.6796875 -13.87939453 C-165.44218369 -33.51867372 -193.47444009 -43.13195215 -221.84765625 -42.57080078 C-255.7328193 -40.70342096 -284.68762145 -27.97639351 -307.81103516 -3.01318359 C-324.92311668 16.36928269 -333.74965268 40.74022462 -339.25 65.61669922 C-339.43224121 66.43831543 -339.61448242 67.25993164 -339.80224609 68.10644531 C-345.8093203 97.06592245 -343.4934544 129.26097614 -338.79003906 158.24804688 C-337.86374683 164.02606687 -337.06728375 169.82238624 -336.25 175.61669922 C-347.78176373 170.20403573 -359.24951376 164.68636649 -370.63076019 158.96390152 C-373.01512356 157.76512971 -375.40087347 156.56915412 -377.78692627 155.37374878 C-383.70858647 152.40635734 -389.62802845 149.43455206 -395.54748535 146.46276855 C-424.76988963 131.77634189 -424.76988963 131.77634189 -454.25 117.61669922 C-455.57025177 116.99698242 -455.57025177 116.99698242 -456.91717529 116.36474609 C-462.18296553 113.89597162 -467.45543337 111.4419366 -472.7331543 108.9987793 C-475.34606648 107.78865348 -477.95724232 106.57483342 -480.56835938 105.36083984 C-490.06547105 100.95463225 -499.59333705 96.66285397 -509.25 92.61669922 C-507.7239071 87.84435817 -505.78533382 83.5890659 -503.3125 79.24169922 C-502.91772461 78.54689453 -502.52294922 77.85208984 -502.11621094 77.13623047 C-478.15945866 35.68339332 -442.0593306 2.93288441 -400.43701172 -20.16650391 C-398.49134531 -21.24902248 -396.55909526 -22.35166174 -394.62890625 -23.46142578 C-351.92789931 -47.30807211 -302.43591807 -59.3390516 -254.25 -65.38330078 C-253.20875977 -65.51462402 -252.16751953 -65.64594727 -251.09472656 -65.78125 C-167.11095896 -75.86552523 -64.40445276 -58.38588761 0 0 Z M-99.12841797 203.10693359 C-99.93436905 203.4362941 -100.74032013 203.7656546 -101.57069397 204.10499573 C-102.89308327 204.65219521 -102.89308327 204.65219521 -104.2421875 205.21044922 C-105.16289536 205.58874374 -106.08360321 205.96703827 -107.0322113 206.35679626 C-110.06509917 207.60541073 -113.0952989 208.86037333 -116.125 210.11669922 C-117.67663345 210.7587883 -117.67663345 210.7587883 -119.25961304 211.41384888 C-175.15786651 234.56812509 -231.01294476 259.08084448 -278.25 297.61669922 C-278.79124512 298.05353027 -279.33249023 298.49036133 -279.89013672 298.94042969 C-294.94592707 311.15838542 -309.69136239 325.00614068 -321.25 340.61669922 C-321.71889648 341.2309375 -322.18779297 341.84517578 -322.67089844 342.47802734 C-346.18284945 373.3109774 -361.47714735 408.44064895 -368.25 446.61669922 C-368.49556641 447.96658936 -368.49556641 447.96658936 -368.74609375 449.34375 C-375.68207836 489.1755046 -373.34085987 531.97292764 -349.49365234 565.93017578 C-346.39180091 570.1366127 -342.91256042 573.90037644 -339.25 577.61669922 C-338.64027344 578.29861328 -338.03054687 578.98052734 -337.40234375 579.68310547 C-325.91070001 592.15068498 -308.9218432 600.09957779 -292.25 602.61669922 C-291.20199219 602.78105469 -291.20199219 602.78105469 -290.1328125 602.94873047 C-248.87422842 608.45476927 -208.55478817 588.07667457 -176.625 563.89404297 C-165.01152638 554.95664065 -153.83718399 545.5374814 -143.65234375 534.99169922 C-141.25 532.61669922 -141.25 532.61669922 -138.64453125 530.53466797 C-136.46016947 528.7850405 -134.7805131 527.07390818 -133 524.92919922 C-130.37095632 521.84864586 -127.63583131 518.95835964 -124.75 516.11669922 C-120.70164725 512.10917019 -116.94366142 507.94992458 -113.25 503.61669922 C-112.31044179 502.5289878 -111.37028679 501.44179173 -110.4296875 500.35498047 C-109.3904103 499.15073864 -108.35134927 497.94631023 -107.3125 496.74169922 C-106.83449951 496.18909424 -106.35649902 495.63648926 -105.86401367 495.06713867 C-104.89883042 493.94344169 -103.94327087 492.81140273 -102.99779844 491.67107141 C-101.77909519 490.2386007 -100.51744832 488.8420451 -99.22521257 487.4755398 C-93.41597931 480.98895288 -92.09783952 476.44787778 -92.28796387 467.86019897 C-92.27771077 466.14454127 -92.27771077 466.14454127 -92.26725054 464.39422381 C-92.25412979 460.58241613 -92.29797522 456.77345973 -92.34179688 452.96191406 C-92.34851774 450.22153964 -92.34313626 447.4812198 -92.33825684 444.74084473 C-92.33407406 438.85191001 -92.35904532 432.96368764 -92.40415955 427.0749321 C-92.46934245 418.56104513 -92.49002788 410.04750051 -92.50006348 401.53339107 C-92.51754666 387.71802929 -92.57071532 373.90304668 -92.64648438 360.08789062 C-92.71998389 346.67254526 -92.77657811 333.2573031 -92.81054688 319.84179688 C-92.81264866 319.01403934 -92.81475045 318.1862818 -92.81691593 317.33344071 C-92.82735668 313.18057589 -92.83746624 309.02771034 -92.84741116 304.87484431 C-92.93026437 270.45518981 -93.07109849 236.0359855 -93.25 201.61669922 C-95.59014903 201.61669922 -96.96355482 202.21759378 -99.12841797 203.10693359 Z " fill="#929381" transform="translate(2586.25,478.38330078125)"/>
<path d="M0 0 C0.66 0.33 1.32 0.66 2 1 C-8.89 11.89 -19.78 22.78 -31 34 C-31.66 33.67 -32.32 33.34 -33 33 C-11.13829787 9.35106383 -11.13829787 9.35106383 0 0 Z " fill="#B3B4A7" transform="translate(935,334)"/>
<path d="M0 0 C0.66 0.33 1.32 0.66 2 1 C-8.23 11.23 -18.46 21.46 -29 32 C-29.66 31.67 -30.32 31.34 -31 31 C-10.69395224 9.06217751 -10.69395224 9.06217751 0 0 Z " fill="#B4B5A8" transform="translate(1842,444)"/>
<path d="M0 0 C0.66 0.33 1.32 0.66 2 1 C-7.24 10.24 -16.48 19.48 -26 29 C-26.66 28.67 -27.32 28.34 -28 28 C-19.04577768 18.21005027 -10.11973644 8.61254165 0 0 Z " fill="#B5B6A9" transform="translate(2129,789)"/>
<path d="M0 0 C0.66 0.33 1.32 0.66 2 1 C-6.91 9.91 -15.82 18.82 -25 28 C-25.66 27.67 -26.32 27.34 -27 27 C-18.35373511 17.56916662 -9.61529055 8.45142857 0 0 Z " fill="#B7B8AB" transform="translate(2138,491)"/>
<path d="M0 0 C0.66 0.33 1.32 0.66 2 1 C-6.91 9.91 -15.82 18.82 -25 28 C-25.66 27.67 -26.32 27.34 -27 27 C-18.35373511 17.56916662 -9.61529055 8.45142857 0 0 Z " fill="#B8B9AD" transform="translate(875,880)"/>
<path d="M0 0 C0.66 0.33 1.32 0.66 2 1 C-5.92 8.92 -13.84 16.84 -22 25 C-22.66 24.67 -23.32 24.34 -24 24 C-23.55269531 23.56429687 -23.10539063 23.12859375 -22.64453125 22.6796875 C-19.79624253 19.87391056 -17.08707804 17.10717297 -14.5625 14 C-11.87971979 10.85918414 -9.00638199 8.28627746 -5.87109375 5.61328125 C-3.81073837 3.83681618 -1.88376398 1.96225415 0 0 Z " fill="#B5B6A9" transform="translate(184,806)"/>
<path d="M0 0 C-0.33 0.33 -0.66 0.66 -1 1 C-0.34 1.66 0.32 2.32 1 3 C0.21753906 3.04898437 -0.56492187 3.09796875 -1.37109375 3.1484375 C-2.38300781 3.22320313 -3.39492187 3.29796875 -4.4375 3.375 C-5.44683594 3.44460938 -6.45617188 3.51421875 -7.49609375 3.5859375 C-8.73552734 3.79089844 -8.73552734 3.79089844 -10 4 C-10.33 4.66 -10.66 5.32 -11 6 C-11.33 4.35 -11.66 2.7 -12 1 C-10.37681021 0.63762737 -8.7513642 0.28534843 -7.125 -0.0625 C-6.22007813 -0.25972656 -5.31515625 -0.45695312 -4.3828125 -0.66015625 C-2 -1 -2 -1 0 0 Z " fill="#BDBDB2" transform="translate(1257,1281)"/>
</svg>
